<?xml version="1.0" encoding="utf-8"?>
<!-- Generator: Adobe Illustrator 18.1.1, SVG Export Plug-In . SVG Version: 6.00 Build 0)  -->
<svg version="1.1" id="Layer_1" xmlns="http://www.w3.org/2000/svg" xmlns:xlink="http://www.w3.org/1999/xlink" x="0px" y="0px"
	 viewBox="0 0 327.7 398.9" enable-background="new 0 0 327.7 398.9" xml:space="preserve">
<g id="CURiSX_1_">
	<g>
		<path fill="#C1272D" d="M51.4,359.2c-16.4-15.5-28.6-34.2-36.3-55.6c-13.5-37.4-5.2-70.4,23.1-97.4c13-12.5,29.2-21.7,43.8-32.6
			c12.9-9.7,26.7-18.6,38.3-29.7c12.9-12.4,19.6-28.2,15.6-46.7c8.3-3.4,17.1-6.7,17.1-6.7s4.2,8.6,7.6,15.5
			c8.4,17.2,7.5,34.6,1.3,52.2c-7.8,22.2-22.4,39.8-37.4,57.4c-11.1,13.1-22.3,26.6-30.5,41.5c-19,34.5-16.7,68.1,10,99.1
			c-8.6,12.5-5.3,42.6-5.3,42.6S65.6,372.5,51.4,359.2z"/>
		<path fill="#C1272D" d="M177.7,0.4c11,1.3,21.9,4.2,32.2,7.9c11.6,4.2,32.9,17.7,32.9,17.7s-14.3-4-21.5-5.3
			c-29.5-5.2-55.4,3-79.1,20.7c-3.9,2.9-9.6,5-14.5,5.1c-24.3,0.5-48.5,0.2-74.4,0.2c7.9-13.2,19-18.3,31.7-18.9
			c12.5-0.6,21.2-5.2,31.2-13.6C123.8,8,136,3.6,145.5,1.7C151.6,0.4,169-0.6,177.7,0.4z"/>
		<path fill="#C1272D" d="M107.1,347.4c-16.6-18.3-21.7-40.5-15.3-65.6c6.3-24.7,21.6-44,38.4-62.4c9.5-10.5,19.3-21.1,27-32.9
			c21.3-32.7,27.2-66.2,0.6-99.1c1.1-1.5,8.9-11.1,8.9-11.1s5.2,3.1,9.3,5.8c9.2,6.2,19.4,11.2,28,18.2
			c25.4,20.8,33.4,49.5,19.1,79.1c-8.7,17.9-30.7,44.8-43.9,59.9c-17.6,20.1-16,62.8-16,62.8S124.8,333.2,107.1,347.4z"/>
		<path fill="#C1272D" d="M170.4,299.7c-3.5-28.2,8.1-48.7,24.5-68c10.9-12.8,22.3-25.7,30.5-40.3c21.7-38.6,13.7-74.1-21.4-101.2
			c-7.2-5.6-36.3-21-36.3-21l-0.7-15.5c0,0,21.9,1.7,31.5,5c41.7,14.3,74.8,35.8,84.2,78.5c9,46-14.4,108.7-14.4,108.7
			S194.8,287.9,170.4,299.7z"/>
		<path fill="#C1272D" d="M5.5,111.4C3.9,105.8-1.1,97.4,0.2,90c1-6.1,9.5-11,15.9-17.7c-4.9,0.7-8.1,1.2-11.2,1.6
			c0.9-10.6,6.8-17.2,18.5-18.2c11.4-0.9,23-0.6,34.5-0.4c2.1,0,4.6,2,6.3,3.7c6,6.2,11.5,5.3,17.8,0.2c2.6-2.1,6.2-3.9,9.4-4
			c17.2-0.4,34.5-0.7,51.7,0.1c5.2,0.3,13.8,3.6,14.6,7c1.2,5.1-1.4,13.8-5.5,16.8c-7.2,5.3-16.7,7.4-26.3,11.3
			c0.1,0.4,0.5,2.9,1.2,5.3c7.4,28.5-12,55.3-41.6,56.8c-13.8,0.7-27.7,0.1-41.6,0.4c-11.7,0.3-23,1.9-31.3,11.5
			c-10.8-12.3-12.6-28-4.7-42.4c8.3,9.7,19.3,11.6,31.1,10.6c3.3-0.3,7.4-0.8,9.5-2.8c3.2-3.2,7.1-8,6.8-11.9
			c-0.2-2.9-6.3-7.6-10-7.8C33,109.7,20.7,110.8,5.5,111.4z"/>
		<path fill="#C1272D" d="M149.7,46.3c23.5-17.9,47.8-22.5,74.4-17c57.5,11.8,105.8,72,103.6,130.5c-1.3,35.6-20.2,61.8-49.1,83.6
			c23.4-63.8,20.6-113.3-7.4-146.9C247.9,68.5,207.6,44.7,149.7,46.3z"/>
	</g>
</g>
</svg>
